<svg width="78.506" height="125.609" viewBox="0 0 78.506 125.609">
  <path id="Icon_awesome-mobile-alt" data-name="Icon awesome-mobile-alt" d="M66.73,0H11.776A11.779,11.779,0,0,0,0,11.776V113.833a11.779,11.779,0,0,0,11.776,11.776H66.73a11.779,11.779,0,0,0,11.776-11.776V11.776A11.779,11.779,0,0,0,66.73,0ZM39.253,117.758a7.851,7.851,0,1,1,7.851-7.851A7.842,7.842,0,0,1,39.253,117.758Zm27.477-26.5a2.953,2.953,0,0,1-2.944,2.944H14.72a2.953,2.953,0,0,1-2.944-2.944V14.72a2.953,2.953,0,0,1,2.944-2.944H63.786A2.953,2.953,0,0,1,66.73,14.72Z" fill="#ffc86b"/>
</svg>
