<svg  width="110.763" height="110.782" viewBox="0 0 110.763 110.782">
  <path id="Icon_open-browser" data-name="Icon open-browser" d="M4.713.019A6.922,6.922,0,0,0,.006,6.941v96.91a6.922,6.922,0,0,0,6.922,6.922h96.91a6.922,6.922,0,0,0,6.922-6.922V6.941A6.922,6.922,0,0,0,103.838.019H6.929a6.922,6.922,0,0,0-1.246,0,6.922,6.922,0,0,0-.831,0ZM20.773,13.863a6.922,6.922,0,1,1-6.922,6.922A6.855,6.855,0,0,1,20.773,13.863Zm27.688,0H89.994a6.922,6.922,0,1,1,0,13.844H48.461a6.922,6.922,0,1,1,0-13.844ZM13.851,41.552H96.916V96.929H13.851Z" transform="translate(0.003 0.009)" fill="#ffc86b"/>
</svg>
