<svg  width="132.796" height="129.476" viewBox="0 0 132.796 129.476">
  <path id="Icon_simple-adobexd" data-name="Icon simple-adobexd" d="M109.28.45H23.516A23.5,23.5,0,0,0,0,23.966V106.41a23.5,23.5,0,0,0,23.516,23.516H109.28A23.5,23.5,0,0,0,132.8,106.41V23.966A23.5,23.5,0,0,0,109.28.45Zm17.927,103.8a20.047,20.047,0,0,1-20.03,20.141H25.619A20.119,20.119,0,0,1,5.533,104.307V26.069A20.119,20.119,0,0,1,25.619,5.983h81.5a20.085,20.085,0,0,1,20.085,20.085ZM52.51,61.038,68,90.807c.277.443.111.885-.332.885H58.043a1.086,1.086,0,0,1-1.162-.719c-3.541-7.3-7.138-14.608-10.845-22.465h-.111c-3.32,7.414-6.972,15.216-10.513,22.52a1.063,1.063,0,0,1-1,.609h-9.13c-.553,0-.609-.443-.332-.775L40.115,61.979,25.453,32.764a.447.447,0,0,1,.332-.775H35.3a.871.871,0,0,1,1,.609c3.486,7.3,7.027,14.829,10.347,22.188h.111c3.209-7.3,6.75-14.884,10.181-22.133.277-.443.443-.719,1-.719h8.908c.443,0,.609.332.332.775Zm18.2,9.019c0-12.892,8.576-22.963,22.188-22.963a24.538,24.538,0,0,1,2.877.111V32.542a.554.554,0,0,1,.553-.553h8.742c.443,0,.553.166.553.443V83.226a39.411,39.411,0,0,0,.277,5.422c0,.332-.111.443-.443.609A32.959,32.959,0,0,1,91.3,92.467C79.29,92.522,70.714,85.107,70.714,70.057ZM95.779,55.892a8.368,8.368,0,0,0-3.209-.553c-6.972,0-11.841,5.367-11.841,14.276,0,10.181,4.98,14.276,11.232,14.276a10.439,10.439,0,0,0,3.818-.609V55.892Z" transform="translate(0 -0.45)" fill="#ffc86b"/>
</svg>
